# xmcd
#
# Track frame offsets:
#	182
#	21382
#	40437
#	61007
#	78822
#	98957
#	116892
#	140867
#	161475
#	184745
#	208167
#	224527
#
# Disc length: 3236 seconds
#
# Revision: 83230421
# Processed by: cddbd v1.5.1PL0 Copyright (c) Steve Scherf et al.
# Submitted via: EasyCDDAExtractor 8.0.2.1
#
DISCID=b30ca20c
DTITLE=Kevon Edmonds - 24-7
DYEAR=1999
DGENRE=R&B
TTITLE0=Never Love You
TTITLE1=Love Will Be Waiting
TTITLE2=24-7
TTITLE3=When I'm With You
TTITLE4=How Often
TTITLE5=Baby Come To Me
TTITLE6=A Girl Like You (Featuring Babyface)
TTITLE7=I Want You More
TTITLE8=No Love
TTITLE9=Sensitive Mood
TTITLE10=Anyway
TTITLE11=Tell Me
EXTD=
EXTT0=
EXTT1=
EXTT2=
EXTT3=
EXTT4=
EXTT5=
EXTT6=
EXTT7=
EXTT8=
EXTT9=
EXTT10=
EXTT11=
PLAYORDER=
